<svg xmlns="http://www.w3.org/2000/svg" viewBox="0 0 720 500"><rect width="720" height="500" rx="24" fill="#eff4ef"/><circle cx="565" cy="95" r="125" fill="#dbe8dc"/><path d="M0 388c111-79 223-92 338-47s220 51 382-15v174H0z" fill="#e4ede4"/><rect x="240" y="68" width="238" height="352" rx="18" fill="#fff" stroke="#cbd9cd" stroke-width="3"/><path d="M258 86h202v62H258z" rx="8" fill="#55785e"/><path d="M274 182h82v6h-82zm0 17h132v5H274z" fill="#d1ddd2"/><circle cx="359" cy="278" r="63" fill="#eef4ee"/><path d="M357 327c-46-39-46-73-18-86 20-9 34 5 39 18 11-22 36-28 52-13 27 26-9 62-73 81z" fill="#83a28a"/><text x="278" y="120" font-family="Arial,sans-serif" font-size="17" font-weight="700" letter-spacing="3" fill="#fff">VITACORE</text><text x="272" y="373" font-family="Arial,sans-serif" font-size="15" letter-spacing="2" fill="#55785e">DAILY WELLNESS</text><rect x="116" y="193" width="64" height="28" rx="14" transform="rotate(-32 116 193)" fill="#78957e" opacity=".8"/><rect x="545" y="300" width="72" height="30" rx="15" transform="rotate(28 545 300)" fill="#d2ad67" opacity=".8"/></svg>
