<svg xmlns="http://www.w3.org/2000/svg" viewBox="0 0 720 500"><rect width="720" height="500" rx="24" fill="#f2f3ec"/><circle cx="576" cy="103" r="119" fill="#e3e7d4"/><path d="M0 398c141-80 258-78 374-33 127 50 213 45 346-18v153H0z" fill="#e8ebdd"/><rect x="248" y="75" width="225" height="345" rx="19" fill="#fff" stroke="#d9ddc9" stroke-width="3"/><path d="M266 93h189v60H266z" fill="#78845a"/><path d="M284 182h147v6H284zm0 19h127v5H284z" fill="#e0e3d4"/><circle cx="361" cy="278" r="67" fill="#f3f5ec"/><circle cx="361" cy="278" r="36" fill="none" stroke="#c7a75f" stroke-width="13"/><path d="M361 234v88" stroke="#8e9d6a" stroke-width="8" stroke-linecap="round"/><text x="272" y="130" font-family="Arial,sans-serif" font-size="16" font-weight="700" letter-spacing="2" fill="#fff">IMMUNOSHIELD</text><text x="270" y="375" font-family="Arial,sans-serif" font-size="14" letter-spacing="1.5" fill="#707d52">IMMUNOLOGICAL CARE</text><path d="M119 205c30-27 61-15 67 16-27 20-55 13-67-16zm64 16c4 31-18 50-47 44-4-31 18-50 47-44z" fill="#98a77a"/><circle cx="579" cy="329" r="34" fill="#d2ad67" opacity=".8"/></svg>
