<svg xmlns="http://www.w3.org/2000/svg" viewBox="0 0 720 500"><rect width="720" height="500" rx="24" fill="#eff5f4"/><circle cx="132" cy="120" r="92" fill="#d9e9e5"/><path d="M0 405c153-100 288-72 408-36 116 35 209 31 312-21v152H0z" fill="#e1eeeb"/><rect x="253" y="134" width="216" height="286" rx="18" fill="#fff" stroke="#c9dad5" stroke-width="3"/><path d="M271 152h180v60H271z" fill="#3f7770"/><path d="M302 91h118v43H302z" rx="10" fill="#d9e6e2" stroke="#bed1cb" stroke-width="3"/><path d="M361 242c-47 44-34 94 0 112 34-18 47-68 0-112z" fill="#93b5ac"/><path d="M361 260c-15 27-17 52 0 78 17-26 15-51 0-78z" fill="#eaf2ef"/><text x="306" y="188" font-family="Arial,sans-serif" font-size="17" font-weight="700" letter-spacing="2" fill="#fff">AERIS</text><text x="290" y="376" font-family="Arial,sans-serif" font-size="14" letter-spacing="1.5" fill="#3f7770">PULMONARY CARE</text><path d="M531 126c32-25 61-15 78 14-30 25-61 16-78-14zm76 15c8 34-10 57-44 60-8-34 10-57 44-60z" fill="#83a89d"/><circle cx="172" cy="336" r="36" fill="#d4e6e1"/><path d="M144 338h56" stroke="#71a097" stroke-width="4" stroke-linecap="round"/></svg>
